<mxfile host="app.diagrams.net" agent="Mozilla/5.0 (Windows NT 10.0; Win64; x64) AppleWebKit/537.36 (KHTML, like Gecko) Chrome/140.0.0.0 Safari/537.36" version="28.2.3">
  <diagram name="Page-1" id="yMqZb2H99Yp8ipSMOr5U">
    <mxGraphModel dx="1633" dy="1471" grid="1" gridSize="10" guides="1" tooltips="1" connect="1" arrows="1" fold="1" page="1" pageScale="1" pageWidth="827" pageHeight="1169" math="0" shadow="0">
      <root>
        <mxCell id="0" />
        <mxCell id="1" parent="0" />
        <mxCell id="01cRW5Nif3fKUecZSEzK-48" value="" style="rounded=0;orthogonalLoop=1;jettySize=auto;html=1;endArrow=none;endFill=0;" edge="1" parent="1" source="01cRW5Nif3fKUecZSEzK-39" target="01cRW5Nif3fKUecZSEzK-47">
          <mxGeometry relative="1" as="geometry" />
        </mxCell>
        <mxCell id="01cRW5Nif3fKUecZSEzK-50" style="rounded=0;orthogonalLoop=1;jettySize=auto;html=1;entryX=0.5;entryY=1;entryDx=0;entryDy=0;endArrow=none;endFill=0;" edge="1" parent="1" source="01cRW5Nif3fKUecZSEzK-39" target="01cRW5Nif3fKUecZSEzK-49">
          <mxGeometry relative="1" as="geometry" />
        </mxCell>
        <mxCell id="01cRW5Nif3fKUecZSEzK-98" value="" style="edgeStyle=orthogonalEdgeStyle;rounded=0;orthogonalLoop=1;jettySize=auto;html=1;entryX=1;entryY=0.5;entryDx=0;entryDy=0;endArrow=none;endFill=0;" edge="1" parent="1" source="01cRW5Nif3fKUecZSEzK-39" target="01cRW5Nif3fKUecZSEzK-95">
          <mxGeometry relative="1" as="geometry">
            <mxPoint x="240" y="215" as="targetPoint" />
          </mxGeometry>
        </mxCell>
        <mxCell id="01cRW5Nif3fKUecZSEzK-39" value="Medidor" style="rounded=0;whiteSpace=wrap;html=1;" vertex="1" parent="1">
          <mxGeometry x="340" y="200" width="120" height="30" as="geometry" />
        </mxCell>
        <mxCell id="01cRW5Nif3fKUecZSEzK-40" value="id" style="ellipse;whiteSpace=wrap;html=1;" vertex="1" parent="1">
          <mxGeometry x="250" y="145" width="90" height="30" as="geometry" />
        </mxCell>
        <mxCell id="01cRW5Nif3fKUecZSEzK-46" style="rounded=0;orthogonalLoop=1;jettySize=auto;html=1;entryX=0.6;entryY=1.028;entryDx=0;entryDy=0;entryPerimeter=0;endArrow=none;endFill=0;" edge="1" parent="1" source="01cRW5Nif3fKUecZSEzK-39" target="01cRW5Nif3fKUecZSEzK-40">
          <mxGeometry relative="1" as="geometry" />
        </mxCell>
        <mxCell id="01cRW5Nif3fKUecZSEzK-47" value="modelo" style="ellipse;whiteSpace=wrap;html=1;rounded=0;" vertex="1" parent="1">
          <mxGeometry x="350" y="125" width="76" height="35" as="geometry" />
        </mxCell>
        <mxCell id="01cRW5Nif3fKUecZSEzK-49" value="estado" style="ellipse;whiteSpace=wrap;html=1;rounded=0;" vertex="1" parent="1">
          <mxGeometry x="442" y="130" width="76" height="35" as="geometry" />
        </mxCell>
        <mxCell id="01cRW5Nif3fKUecZSEzK-51" value="" style="rounded=0;orthogonalLoop=1;jettySize=auto;html=1;endArrow=none;endFill=0;" edge="1" parent="1" source="01cRW5Nif3fKUecZSEzK-53" target="01cRW5Nif3fKUecZSEzK-56">
          <mxGeometry relative="1" as="geometry" />
        </mxCell>
        <mxCell id="01cRW5Nif3fKUecZSEzK-52" style="rounded=0;orthogonalLoop=1;jettySize=auto;html=1;endArrow=none;endFill=0;" edge="1" parent="1" source="01cRW5Nif3fKUecZSEzK-53" target="01cRW5Nif3fKUecZSEzK-57">
          <mxGeometry relative="1" as="geometry" />
        </mxCell>
        <mxCell id="01cRW5Nif3fKUecZSEzK-96" value="" style="edgeStyle=orthogonalEdgeStyle;rounded=0;orthogonalLoop=1;jettySize=auto;html=1;endArrow=none;endFill=0;" edge="1" parent="1" source="01cRW5Nif3fKUecZSEzK-53" target="01cRW5Nif3fKUecZSEzK-95">
          <mxGeometry relative="1" as="geometry" />
        </mxCell>
        <mxCell id="01cRW5Nif3fKUecZSEzK-111" style="rounded=0;orthogonalLoop=1;jettySize=auto;html=1;entryX=0.777;entryY=0.138;entryDx=0;entryDy=0;endArrow=none;endFill=0;entryPerimeter=0;" edge="1" parent="1" source="01cRW5Nif3fKUecZSEzK-53" target="01cRW5Nif3fKUecZSEzK-108">
          <mxGeometry relative="1" as="geometry" />
        </mxCell>
        <mxCell id="01cRW5Nif3fKUecZSEzK-112" style="rounded=0;orthogonalLoop=1;jettySize=auto;html=1;entryX=0;entryY=0;entryDx=0;entryDy=0;endArrow=none;endFill=0;" edge="1" parent="1" source="01cRW5Nif3fKUecZSEzK-53" target="01cRW5Nif3fKUecZSEzK-110">
          <mxGeometry relative="1" as="geometry" />
        </mxCell>
        <mxCell id="01cRW5Nif3fKUecZSEzK-113" style="rounded=0;orthogonalLoop=1;jettySize=auto;html=1;entryX=0.252;entryY=0.129;entryDx=0;entryDy=0;endArrow=none;endFill=0;entryPerimeter=0;" edge="1" parent="1" source="01cRW5Nif3fKUecZSEzK-53" target="01cRW5Nif3fKUecZSEzK-109">
          <mxGeometry relative="1" as="geometry" />
        </mxCell>
        <mxCell id="01cRW5Nif3fKUecZSEzK-53" value="Usuario" style="rounded=0;whiteSpace=wrap;html=1;" vertex="1" parent="1">
          <mxGeometry x="-110" y="200" width="120" height="30" as="geometry" />
        </mxCell>
        <mxCell id="01cRW5Nif3fKUecZSEzK-54" value="id" style="ellipse;whiteSpace=wrap;html=1;" vertex="1" parent="1">
          <mxGeometry x="-181" y="150" width="90" height="30" as="geometry" />
        </mxCell>
        <mxCell id="01cRW5Nif3fKUecZSEzK-55" style="rounded=0;orthogonalLoop=1;jettySize=auto;html=1;entryX=0.6;entryY=1.028;entryDx=0;entryDy=0;entryPerimeter=0;endArrow=none;endFill=0;" edge="1" parent="1" source="01cRW5Nif3fKUecZSEzK-53" target="01cRW5Nif3fKUecZSEzK-54">
          <mxGeometry relative="1" as="geometry" />
        </mxCell>
        <mxCell id="01cRW5Nif3fKUecZSEzK-56" value="nombreUsuario" style="ellipse;whiteSpace=wrap;html=1;rounded=0;" vertex="1" parent="1">
          <mxGeometry x="-10" y="119" width="96" height="35" as="geometry" />
        </mxCell>
        <mxCell id="01cRW5Nif3fKUecZSEzK-57" value="contraseÃ±a" style="ellipse;whiteSpace=wrap;html=1;rounded=0;" vertex="1" parent="1">
          <mxGeometry x="40" y="153" width="76" height="35" as="geometry" />
        </mxCell>
        <mxCell id="01cRW5Nif3fKUecZSEzK-58" value="" style="rounded=0;orthogonalLoop=1;jettySize=auto;html=1;endArrow=none;endFill=0;" edge="1" parent="1" source="01cRW5Nif3fKUecZSEzK-60" target="01cRW5Nif3fKUecZSEzK-63">
          <mxGeometry relative="1" as="geometry" />
        </mxCell>
        <mxCell id="01cRW5Nif3fKUecZSEzK-59" style="rounded=0;orthogonalLoop=1;jettySize=auto;html=1;entryX=0;entryY=1;entryDx=0;entryDy=0;endArrow=none;endFill=0;" edge="1" parent="1" source="01cRW5Nif3fKUecZSEzK-60" target="01cRW5Nif3fKUecZSEzK-64">
          <mxGeometry relative="1" as="geometry" />
        </mxCell>
        <mxCell id="01cRW5Nif3fKUecZSEzK-116" style="rounded=0;orthogonalLoop=1;jettySize=auto;html=1;entryX=0.5;entryY=0;entryDx=0;entryDy=0;endArrow=none;endFill=0;" edge="1" parent="1" source="01cRW5Nif3fKUecZSEzK-60" target="01cRW5Nif3fKUecZSEzK-115">
          <mxGeometry relative="1" as="geometry" />
        </mxCell>
        <mxCell id="01cRW5Nif3fKUecZSEzK-119" style="rounded=0;orthogonalLoop=1;jettySize=auto;html=1;entryX=0;entryY=0.5;entryDx=0;entryDy=0;endArrow=none;endFill=0;" edge="1" parent="1" source="01cRW5Nif3fKUecZSEzK-60" target="01cRW5Nif3fKUecZSEzK-118">
          <mxGeometry relative="1" as="geometry" />
        </mxCell>
        <mxCell id="01cRW5Nif3fKUecZSEzK-60" value="Consumo" style="rounded=0;whiteSpace=wrap;html=1;" vertex="1" parent="1">
          <mxGeometry x="698" y="200" width="120" height="30" as="geometry" />
        </mxCell>
        <mxCell id="01cRW5Nif3fKUecZSEzK-61" value="id" style="ellipse;whiteSpace=wrap;html=1;" vertex="1" parent="1">
          <mxGeometry x="630" y="150" width="90" height="30" as="geometry" />
        </mxCell>
        <mxCell id="01cRW5Nif3fKUecZSEzK-62" style="rounded=0;orthogonalLoop=1;jettySize=auto;html=1;entryX=0.6;entryY=1.028;entryDx=0;entryDy=0;entryPerimeter=0;endArrow=none;endFill=0;" edge="1" parent="1" source="01cRW5Nif3fKUecZSEzK-60" target="01cRW5Nif3fKUecZSEzK-61">
          <mxGeometry relative="1" as="geometry" />
        </mxCell>
        <mxCell id="01cRW5Nif3fKUecZSEzK-63" value="fecha" style="ellipse;whiteSpace=wrap;html=1;rounded=0;" vertex="1" parent="1">
          <mxGeometry x="720" y="140" width="76" height="35" as="geometry" />
        </mxCell>
        <mxCell id="01cRW5Nif3fKUecZSEzK-64" value="litros" style="ellipse;whiteSpace=wrap;html=1;rounded=0;" vertex="1" parent="1">
          <mxGeometry x="806" y="140" width="76" height="35" as="geometry" />
        </mxCell>
        <mxCell id="01cRW5Nif3fKUecZSEzK-76" value="" style="rounded=0;orthogonalLoop=1;jettySize=auto;html=1;endArrow=none;endFill=0;" edge="1" parent="1" source="01cRW5Nif3fKUecZSEzK-79" target="01cRW5Nif3fKUecZSEzK-82">
          <mxGeometry relative="1" as="geometry" />
        </mxCell>
        <mxCell id="01cRW5Nif3fKUecZSEzK-77" style="rounded=0;orthogonalLoop=1;jettySize=auto;html=1;entryX=0;entryY=0;entryDx=0;entryDy=0;endArrow=none;endFill=0;" edge="1" parent="1" source="01cRW5Nif3fKUecZSEzK-79" target="01cRW5Nif3fKUecZSEzK-83">
          <mxGeometry relative="1" as="geometry" />
        </mxCell>
        <mxCell id="01cRW5Nif3fKUecZSEzK-78" style="rounded=0;orthogonalLoop=1;jettySize=auto;html=1;entryX=0;entryY=0;entryDx=0;entryDy=0;endArrow=none;endFill=0;" edge="1" parent="1" source="01cRW5Nif3fKUecZSEzK-79" target="01cRW5Nif3fKUecZSEzK-84">
          <mxGeometry relative="1" as="geometry" />
        </mxCell>
        <mxCell id="01cRW5Nif3fKUecZSEzK-120" style="rounded=0;orthogonalLoop=1;jettySize=auto;html=1;entryX=1;entryY=0.5;entryDx=0;entryDy=0;endArrow=none;endFill=0;" edge="1" parent="1" source="01cRW5Nif3fKUecZSEzK-79" target="01cRW5Nif3fKUecZSEzK-118">
          <mxGeometry relative="1" as="geometry" />
        </mxCell>
        <mxCell id="01cRW5Nif3fKUecZSEzK-79" value="Notificaciones" style="rounded=0;whiteSpace=wrap;html=1;" vertex="1" parent="1">
          <mxGeometry x="1030" y="205" width="120" height="30" as="geometry" />
        </mxCell>
        <mxCell id="01cRW5Nif3fKUecZSEzK-80" value="id" style="ellipse;whiteSpace=wrap;html=1;" vertex="1" parent="1">
          <mxGeometry x="950" y="265" width="90" height="30" as="geometry" />
        </mxCell>
        <mxCell id="01cRW5Nif3fKUecZSEzK-81" style="rounded=0;orthogonalLoop=1;jettySize=auto;html=1;endArrow=none;endFill=0;" edge="1" parent="1" source="01cRW5Nif3fKUecZSEzK-79" target="01cRW5Nif3fKUecZSEzK-80">
          <mxGeometry relative="1" as="geometry" />
        </mxCell>
        <mxCell id="01cRW5Nif3fKUecZSEzK-82" value="tipo" style="ellipse;whiteSpace=wrap;html=1;rounded=0;" vertex="1" parent="1">
          <mxGeometry x="1040" y="270" width="76" height="35" as="geometry" />
        </mxCell>
        <mxCell id="01cRW5Nif3fKUecZSEzK-83" value="mensaje" style="ellipse;whiteSpace=wrap;html=1;rounded=0;" vertex="1" parent="1">
          <mxGeometry x="1130" y="270" width="76" height="35" as="geometry" />
        </mxCell>
        <mxCell id="01cRW5Nif3fKUecZSEzK-84" value="fecha" style="ellipse;whiteSpace=wrap;html=1;rounded=0;" vertex="1" parent="1">
          <mxGeometry x="1190" y="240" width="76" height="35" as="geometry" />
        </mxCell>
        <mxCell id="01cRW5Nif3fKUecZSEzK-85" value="" style="rounded=0;orthogonalLoop=1;jettySize=auto;html=1;endArrow=none;endFill=0;" edge="1" parent="1" source="01cRW5Nif3fKUecZSEzK-88" target="01cRW5Nif3fKUecZSEzK-91">
          <mxGeometry relative="1" as="geometry" />
        </mxCell>
        <mxCell id="01cRW5Nif3fKUecZSEzK-86" style="rounded=0;orthogonalLoop=1;jettySize=auto;html=1;endArrow=none;endFill=0;" edge="1" parent="1" source="01cRW5Nif3fKUecZSEzK-88" target="01cRW5Nif3fKUecZSEzK-92">
          <mxGeometry relative="1" as="geometry" />
        </mxCell>
        <mxCell id="01cRW5Nif3fKUecZSEzK-117" style="rounded=0;orthogonalLoop=1;jettySize=auto;html=1;entryX=0.5;entryY=1;entryDx=0;entryDy=0;endArrow=none;endFill=0;" edge="1" parent="1" source="01cRW5Nif3fKUecZSEzK-88" target="01cRW5Nif3fKUecZSEzK-115">
          <mxGeometry relative="1" as="geometry" />
        </mxCell>
        <mxCell id="01cRW5Nif3fKUecZSEzK-88" value="Historial" style="rounded=0;whiteSpace=wrap;html=1;" vertex="1" parent="1">
          <mxGeometry x="701" y="380" width="120" height="30" as="geometry" />
        </mxCell>
        <mxCell id="01cRW5Nif3fKUecZSEzK-89" value="id" style="ellipse;whiteSpace=wrap;html=1;" vertex="1" parent="1">
          <mxGeometry x="626" y="426" width="90" height="30" as="geometry" />
        </mxCell>
        <mxCell id="01cRW5Nif3fKUecZSEzK-90" style="rounded=0;orthogonalLoop=1;jettySize=auto;html=1;entryX=0.5;entryY=0;entryDx=0;entryDy=0;endArrow=none;endFill=0;" edge="1" parent="1" source="01cRW5Nif3fKUecZSEzK-88" target="01cRW5Nif3fKUecZSEzK-89">
          <mxGeometry relative="1" as="geometry" />
        </mxCell>
        <mxCell id="01cRW5Nif3fKUecZSEzK-91" value="fecha" style="ellipse;whiteSpace=wrap;html=1;rounded=0;" vertex="1" parent="1">
          <mxGeometry x="722" y="435" width="76" height="35" as="geometry" />
        </mxCell>
        <mxCell id="01cRW5Nif3fKUecZSEzK-92" value="litros" style="ellipse;whiteSpace=wrap;html=1;rounded=0;" vertex="1" parent="1">
          <mxGeometry x="827" y="415" width="76" height="35" as="geometry" />
        </mxCell>
        <mxCell id="01cRW5Nif3fKUecZSEzK-95" value="tiene" style="rhombus;whiteSpace=wrap;html=1;rounded=0;" vertex="1" parent="1">
          <mxGeometry x="130" y="175" width="80" height="80" as="geometry" />
        </mxCell>
        <mxCell id="01cRW5Nif3fKUecZSEzK-99" value="1:M" style="text;html=1;align=center;verticalAlign=middle;resizable=0;points=[];autosize=1;strokeColor=none;fillColor=none;" vertex="1" parent="1">
          <mxGeometry x="4" y="190" width="40" height="30" as="geometry" />
        </mxCell>
        <mxCell id="01cRW5Nif3fKUecZSEzK-100" value="M:1" style="text;html=1;align=center;verticalAlign=middle;resizable=0;points=[];autosize=1;strokeColor=none;fillColor=none;" vertex="1" parent="1">
          <mxGeometry x="275" y="188" width="40" height="30" as="geometry" />
        </mxCell>
        <mxCell id="01cRW5Nif3fKUecZSEzK-101" value="M:N" style="text;html=1;align=center;verticalAlign=middle;resizable=0;points=[];autosize=1;strokeColor=none;fillColor=none;" vertex="1" parent="1">
          <mxGeometry x="145" y="145" width="50" height="30" as="geometry" />
        </mxCell>
        <mxCell id="01cRW5Nif3fKUecZSEzK-102" value="" style="edgeStyle=orthogonalEdgeStyle;rounded=0;orthogonalLoop=1;jettySize=auto;html=1;entryX=1;entryY=0.5;entryDx=0;entryDy=0;endArrow=none;endFill=0;exitX=0;exitY=0.5;exitDx=0;exitDy=0;" edge="1" parent="1" target="01cRW5Nif3fKUecZSEzK-104" source="01cRW5Nif3fKUecZSEzK-60">
          <mxGeometry relative="1" as="geometry">
            <mxPoint x="754" y="215" as="sourcePoint" />
            <mxPoint x="654" y="215" as="targetPoint" />
          </mxGeometry>
        </mxCell>
        <mxCell id="01cRW5Nif3fKUecZSEzK-103" value="" style="edgeStyle=orthogonalEdgeStyle;rounded=0;orthogonalLoop=1;jettySize=auto;html=1;endArrow=none;endFill=0;exitX=1;exitY=0.5;exitDx=0;exitDy=0;" edge="1" parent="1" target="01cRW5Nif3fKUecZSEzK-104" source="01cRW5Nif3fKUecZSEzK-39">
          <mxGeometry relative="1" as="geometry">
            <mxPoint x="480" y="260" as="sourcePoint" />
          </mxGeometry>
        </mxCell>
        <mxCell id="01cRW5Nif3fKUecZSEzK-104" value="tener" style="rhombus;whiteSpace=wrap;html=1;rounded=0;" vertex="1" parent="1">
          <mxGeometry x="530" y="175" width="80" height="80" as="geometry" />
        </mxCell>
        <mxCell id="01cRW5Nif3fKUecZSEzK-106" value="1:M" style="text;html=1;align=center;verticalAlign=middle;resizable=0;points=[];autosize=1;strokeColor=none;fillColor=none;" vertex="1" parent="1">
          <mxGeometry x="460" y="180" width="40" height="30" as="geometry" />
        </mxCell>
        <mxCell id="01cRW5Nif3fKUecZSEzK-107" value="M:1" style="text;html=1;align=center;verticalAlign=middle;resizable=0;points=[];autosize=1;strokeColor=none;fillColor=none;" vertex="1" parent="1">
          <mxGeometry x="638" y="184" width="40" height="30" as="geometry" />
        </mxCell>
        <mxCell id="01cRW5Nif3fKUecZSEzK-108" value="estadoUsuario" style="ellipse;whiteSpace=wrap;html=1;" vertex="1" parent="1">
          <mxGeometry x="-181" y="255" width="90" height="30" as="geometry" />
        </mxCell>
        <mxCell id="01cRW5Nif3fKUecZSEzK-109" value="fechaCreacion" style="ellipse;whiteSpace=wrap;html=1;" vertex="1" parent="1">
          <mxGeometry x="14" y="250" width="93" height="30" as="geometry" />
        </mxCell>
        <mxCell id="01cRW5Nif3fKUecZSEzK-110" value="ultimoAcceso" style="ellipse;whiteSpace=wrap;html=1;" vertex="1" parent="1">
          <mxGeometry x="-4" y="290" width="90" height="30" as="geometry" />
        </mxCell>
        <mxCell id="01cRW5Nif3fKUecZSEzK-115" value="tener" style="rhombus;whiteSpace=wrap;html=1;rounded=0;" vertex="1" parent="1">
          <mxGeometry x="720" y="270" width="80" height="80" as="geometry" />
        </mxCell>
        <mxCell id="01cRW5Nif3fKUecZSEzK-118" value="tener" style="rhombus;whiteSpace=wrap;html=1;rounded=0;" vertex="1" parent="1">
          <mxGeometry x="882" y="180" width="80" height="80" as="geometry" />
        </mxCell>
        <mxCell id="01cRW5Nif3fKUecZSEzK-121" style="rounded=0;orthogonalLoop=1;jettySize=auto;html=1;entryX=0.5;entryY=0;entryDx=0;entryDy=0;endArrow=none;endFill=0;" edge="1" parent="1" target="01cRW5Nif3fKUecZSEzK-130">
          <mxGeometry relative="1" as="geometry">
            <mxPoint x="-52" y="230" as="sourcePoint" />
          </mxGeometry>
        </mxCell>
        <mxCell id="01cRW5Nif3fKUecZSEzK-122" value="" style="rounded=0;orthogonalLoop=1;jettySize=auto;html=1;endArrow=none;endFill=0;" edge="1" parent="1" source="01cRW5Nif3fKUecZSEzK-125" target="01cRW5Nif3fKUecZSEzK-128">
          <mxGeometry relative="1" as="geometry" />
        </mxCell>
        <mxCell id="01cRW5Nif3fKUecZSEzK-123" style="rounded=0;orthogonalLoop=1;jettySize=auto;html=1;endArrow=none;endFill=0;" edge="1" parent="1" source="01cRW5Nif3fKUecZSEzK-125" target="01cRW5Nif3fKUecZSEzK-129">
          <mxGeometry relative="1" as="geometry" />
        </mxCell>
        <mxCell id="01cRW5Nif3fKUecZSEzK-124" style="rounded=0;orthogonalLoop=1;jettySize=auto;html=1;entryX=0.5;entryY=1;entryDx=0;entryDy=0;endArrow=none;endFill=0;" edge="1" parent="1" source="01cRW5Nif3fKUecZSEzK-125" target="01cRW5Nif3fKUecZSEzK-130">
          <mxGeometry relative="1" as="geometry" />
        </mxCell>
        <mxCell id="01cRW5Nif3fKUecZSEzK-125" value="Roles" style="rounded=0;whiteSpace=wrap;html=1;" vertex="1" parent="1">
          <mxGeometry x="-110" y="380" width="120" height="30" as="geometry" />
        </mxCell>
        <mxCell id="01cRW5Nif3fKUecZSEzK-126" value="id" style="ellipse;whiteSpace=wrap;html=1;" vertex="1" parent="1">
          <mxGeometry x="-200" y="450" width="90" height="30" as="geometry" />
        </mxCell>
        <mxCell id="01cRW5Nif3fKUecZSEzK-127" style="rounded=0;orthogonalLoop=1;jettySize=auto;html=1;entryX=0.5;entryY=0;entryDx=0;entryDy=0;endArrow=none;endFill=0;" edge="1" parent="1" source="01cRW5Nif3fKUecZSEzK-125" target="01cRW5Nif3fKUecZSEzK-126">
          <mxGeometry relative="1" as="geometry" />
        </mxCell>
        <mxCell id="01cRW5Nif3fKUecZSEzK-128" value="NobreRol" style="ellipse;whiteSpace=wrap;html=1;rounded=0;" vertex="1" parent="1">
          <mxGeometry x="-88" y="455" width="76" height="35" as="geometry" />
        </mxCell>
        <mxCell id="01cRW5Nif3fKUecZSEzK-129" value="Descripcion" style="ellipse;whiteSpace=wrap;html=1;rounded=0;" vertex="1" parent="1">
          <mxGeometry x="19" y="455" width="76" height="35" as="geometry" />
        </mxCell>
        <mxCell id="01cRW5Nif3fKUecZSEzK-130" value="tener" style="rhombus;whiteSpace=wrap;html=1;rounded=0;" vertex="1" parent="1">
          <mxGeometry x="-91" y="270" width="80" height="80" as="geometry" />
        </mxCell>
        <mxCell id="01cRW5Nif3fKUecZSEzK-131" style="rounded=0;orthogonalLoop=1;jettySize=auto;html=1;entryX=0.5;entryY=0;entryDx=0;entryDy=0;endArrow=none;endFill=0;" edge="1" parent="1" target="01cRW5Nif3fKUecZSEzK-140">
          <mxGeometry relative="1" as="geometry">
            <mxPoint x="-52" y="44" as="sourcePoint" />
          </mxGeometry>
        </mxCell>
        <mxCell id="01cRW5Nif3fKUecZSEzK-132" value="" style="rounded=0;orthogonalLoop=1;jettySize=auto;html=1;endArrow=none;endFill=0;" edge="1" parent="1" source="01cRW5Nif3fKUecZSEzK-135" target="01cRW5Nif3fKUecZSEzK-138">
          <mxGeometry relative="1" as="geometry" />
        </mxCell>
        <mxCell id="01cRW5Nif3fKUecZSEzK-133" style="rounded=0;orthogonalLoop=1;jettySize=auto;html=1;endArrow=none;endFill=0;" edge="1" parent="1" source="01cRW5Nif3fKUecZSEzK-135" target="01cRW5Nif3fKUecZSEzK-139">
          <mxGeometry relative="1" as="geometry" />
        </mxCell>
        <mxCell id="01cRW5Nif3fKUecZSEzK-135" value="Log_Errores" style="rounded=0;whiteSpace=wrap;html=1;" vertex="1" parent="1">
          <mxGeometry x="-112" y="20" width="120" height="30" as="geometry" />
        </mxCell>
        <mxCell id="01cRW5Nif3fKUecZSEzK-136" value="id" style="ellipse;whiteSpace=wrap;html=1;" vertex="1" parent="1">
          <mxGeometry x="-202" y="-25" width="90" height="30" as="geometry" />
        </mxCell>
        <mxCell id="01cRW5Nif3fKUecZSEzK-137" style="rounded=0;orthogonalLoop=1;jettySize=auto;html=1;entryX=0.78;entryY=0.985;entryDx=0;entryDy=0;endArrow=none;endFill=0;entryPerimeter=0;" edge="1" parent="1" source="01cRW5Nif3fKUecZSEzK-135" target="01cRW5Nif3fKUecZSEzK-136">
          <mxGeometry relative="1" as="geometry" />
        </mxCell>
        <mxCell id="01cRW5Nif3fKUecZSEzK-138" value="fecha" style="ellipse;whiteSpace=wrap;html=1;rounded=0;" vertex="1" parent="1">
          <mxGeometry x="-91" y="-50" width="76" height="35" as="geometry" />
        </mxCell>
        <mxCell id="01cRW5Nif3fKUecZSEzK-139" value="TipoError" style="ellipse;whiteSpace=wrap;html=1;rounded=0;" vertex="1" parent="1">
          <mxGeometry x="10" y="-30" width="76" height="35" as="geometry" />
        </mxCell>
        <mxCell id="01cRW5Nif3fKUecZSEzK-141" style="rounded=0;orthogonalLoop=1;jettySize=auto;html=1;entryX=0.5;entryY=0;entryDx=0;entryDy=0;endArrow=none;endFill=0;" edge="1" parent="1" source="01cRW5Nif3fKUecZSEzK-140" target="01cRW5Nif3fKUecZSEzK-53">
          <mxGeometry relative="1" as="geometry" />
        </mxCell>
        <mxCell id="01cRW5Nif3fKUecZSEzK-140" value="tener" style="rhombus;whiteSpace=wrap;html=1;rounded=0;" vertex="1" parent="1">
          <mxGeometry x="-91" y="84" width="80" height="80" as="geometry" />
        </mxCell>
        <mxCell id="01cRW5Nif3fKUecZSEzK-142" value="" style="rounded=0;orthogonalLoop=1;jettySize=auto;html=1;endArrow=none;endFill=0;exitX=0;exitY=0.5;exitDx=0;exitDy=0;" edge="1" parent="1" target="01cRW5Nif3fKUecZSEzK-143" source="01cRW5Nif3fKUecZSEzK-135">
          <mxGeometry relative="1" as="geometry">
            <mxPoint x="100" y="-30" as="sourcePoint" />
          </mxGeometry>
        </mxCell>
        <mxCell id="01cRW5Nif3fKUecZSEzK-143" value="Descripcion" style="ellipse;whiteSpace=wrap;html=1;rounded=0;" vertex="1" parent="1">
          <mxGeometry x="-223" y="40" width="76" height="35" as="geometry" />
        </mxCell>
        <mxCell id="01cRW5Nif3fKUecZSEzK-145" value="" style="rounded=0;orthogonalLoop=1;jettySize=auto;html=1;endArrow=none;endFill=0;exitX=1;exitY=0.5;exitDx=0;exitDy=0;" edge="1" parent="1" target="01cRW5Nif3fKUecZSEzK-146" source="01cRW5Nif3fKUecZSEzK-135">
          <mxGeometry relative="1" as="geometry">
            <mxPoint x="10" y="50" as="sourcePoint" />
          </mxGeometry>
        </mxCell>
        <mxCell id="01cRW5Nif3fKUecZSEzK-146" value="IP_Origen" style="ellipse;whiteSpace=wrap;html=1;rounded=0;" vertex="1" parent="1">
          <mxGeometry x="30" y="40" width="76" height="35" as="geometry" />
        </mxCell>
        <mxCell id="01cRW5Nif3fKUecZSEzK-147" value="" style="rounded=0;orthogonalLoop=1;jettySize=auto;html=1;endArrow=none;endFill=0;" edge="1" parent="1" source="01cRW5Nif3fKUecZSEzK-150" target="01cRW5Nif3fKUecZSEzK-153">
          <mxGeometry relative="1" as="geometry" />
        </mxCell>
        <mxCell id="01cRW5Nif3fKUecZSEzK-148" style="rounded=0;orthogonalLoop=1;jettySize=auto;html=1;entryX=0.5;entryY=1;entryDx=0;entryDy=0;endArrow=none;endFill=0;" edge="1" parent="1" source="01cRW5Nif3fKUecZSEzK-150" target="01cRW5Nif3fKUecZSEzK-154">
          <mxGeometry relative="1" as="geometry" />
        </mxCell>
        <mxCell id="01cRW5Nif3fKUecZSEzK-149" value="" style="edgeStyle=orthogonalEdgeStyle;rounded=0;orthogonalLoop=1;jettySize=auto;html=1;entryX=1;entryY=0.5;entryDx=0;entryDy=0;endArrow=none;endFill=0;" edge="1" parent="1" source="01cRW5Nif3fKUecZSEzK-150" target="01cRW5Nif3fKUecZSEzK-156">
          <mxGeometry relative="1" as="geometry">
            <mxPoint x="240" y="390" as="targetPoint" />
          </mxGeometry>
        </mxCell>
        <mxCell id="01cRW5Nif3fKUecZSEzK-150" value="Permisos" style="rounded=0;whiteSpace=wrap;html=1;" vertex="1" parent="1">
          <mxGeometry x="340" y="375" width="120" height="30" as="geometry" />
        </mxCell>
        <mxCell id="01cRW5Nif3fKUecZSEzK-151" value="id" style="ellipse;whiteSpace=wrap;html=1;" vertex="1" parent="1">
          <mxGeometry x="258" y="330" width="90" height="30" as="geometry" />
        </mxCell>
        <mxCell id="01cRW5Nif3fKUecZSEzK-152" style="rounded=0;orthogonalLoop=1;jettySize=auto;html=1;entryX=0.6;entryY=1.028;entryDx=0;entryDy=0;entryPerimeter=0;endArrow=none;endFill=0;" edge="1" parent="1" source="01cRW5Nif3fKUecZSEzK-150" target="01cRW5Nif3fKUecZSEzK-151">
          <mxGeometry relative="1" as="geometry" />
        </mxCell>
        <mxCell id="01cRW5Nif3fKUecZSEzK-153" value="NombrePermisos" style="ellipse;whiteSpace=wrap;html=1;rounded=0;" vertex="1" parent="1">
          <mxGeometry x="332" y="298" width="105" height="35" as="geometry" />
        </mxCell>
        <mxCell id="01cRW5Nif3fKUecZSEzK-154" value="Descripcion" style="ellipse;whiteSpace=wrap;html=1;rounded=0;" vertex="1" parent="1">
          <mxGeometry x="442" y="325" width="76" height="33" as="geometry" />
        </mxCell>
        <mxCell id="01cRW5Nif3fKUecZSEzK-155" value="" style="edgeStyle=orthogonalEdgeStyle;rounded=0;orthogonalLoop=1;jettySize=auto;html=1;endArrow=none;endFill=0;" edge="1" parent="1" target="01cRW5Nif3fKUecZSEzK-156">
          <mxGeometry relative="1" as="geometry">
            <mxPoint x="10" y="390" as="sourcePoint" />
          </mxGeometry>
        </mxCell>
        <mxCell id="01cRW5Nif3fKUecZSEzK-156" value="tiene" style="rhombus;whiteSpace=wrap;html=1;rounded=0;" vertex="1" parent="1">
          <mxGeometry x="130" y="350" width="80" height="80" as="geometry" />
        </mxCell>
        <mxCell id="01cRW5Nif3fKUecZSEzK-157" value="M:1" style="text;html=1;align=center;verticalAlign=middle;resizable=0;points=[];autosize=1;strokeColor=none;fillColor=none;" vertex="1" parent="1">
          <mxGeometry x="275" y="363" width="40" height="30" as="geometry" />
        </mxCell>
        <mxCell id="01cRW5Nif3fKUecZSEzK-158" value="M:N" style="text;html=1;align=center;verticalAlign=middle;resizable=0;points=[];autosize=1;strokeColor=none;fillColor=none;" vertex="1" parent="1">
          <mxGeometry x="145" y="320" width="50" height="30" as="geometry" />
        </mxCell>
        <mxCell id="01cRW5Nif3fKUecZSEzK-187" value="" style="rounded=0;orthogonalLoop=1;jettySize=auto;html=1;endArrow=none;endFill=0;" edge="1" parent="1" source="01cRW5Nif3fKUecZSEzK-189" target="01cRW5Nif3fKUecZSEzK-192">
          <mxGeometry relative="1" as="geometry" />
        </mxCell>
        <mxCell id="01cRW5Nif3fKUecZSEzK-188" style="rounded=0;orthogonalLoop=1;jettySize=auto;html=1;entryX=0;entryY=1;entryDx=0;entryDy=0;endArrow=none;endFill=0;" edge="1" parent="1" source="01cRW5Nif3fKUecZSEzK-189" target="01cRW5Nif3fKUecZSEzK-193">
          <mxGeometry relative="1" as="geometry" />
        </mxCell>
        <mxCell id="01cRW5Nif3fKUecZSEzK-190" value="id" style="ellipse;whiteSpace=wrap;html=1;" vertex="1" parent="1">
          <mxGeometry x="-610" y="72" width="90" height="30" as="geometry" />
        </mxCell>
        <mxCell id="01cRW5Nif3fKUecZSEzK-191" style="rounded=0;orthogonalLoop=1;jettySize=auto;html=1;entryX=0.6;entryY=1.028;entryDx=0;entryDy=0;entryPerimeter=0;endArrow=none;endFill=0;" edge="1" parent="1" source="01cRW5Nif3fKUecZSEzK-189" target="01cRW5Nif3fKUecZSEzK-190">
          <mxGeometry relative="1" as="geometry" />
        </mxCell>
        <mxCell id="01cRW5Nif3fKUecZSEzK-192" value="MinLongitud" style="ellipse;whiteSpace=wrap;html=1;rounded=0;" vertex="1" parent="1">
          <mxGeometry x="-550" y="39" width="135" height="35" as="geometry" />
        </mxCell>
        <mxCell id="01cRW5Nif3fKUecZSEzK-193" value="MaxLongitud" style="ellipse;whiteSpace=wrap;html=1;rounded=0;" vertex="1" parent="1">
          <mxGeometry x="-399.5" y="70.5" width="86" height="33" as="geometry" />
        </mxCell>
        <mxCell id="01cRW5Nif3fKUecZSEzK-194" value="" style="rounded=0;orthogonalLoop=1;jettySize=auto;html=1;endArrow=none;endFill=0;" edge="1" parent="1" source="01cRW5Nif3fKUecZSEzK-196" target="01cRW5Nif3fKUecZSEzK-199">
          <mxGeometry relative="1" as="geometry" />
        </mxCell>
        <mxCell id="01cRW5Nif3fKUecZSEzK-195" style="rounded=0;orthogonalLoop=1;jettySize=auto;html=1;entryX=0.5;entryY=1;entryDx=0;entryDy=0;endArrow=none;endFill=0;" edge="1" parent="1" source="01cRW5Nif3fKUecZSEzK-196" target="01cRW5Nif3fKUecZSEzK-200">
          <mxGeometry relative="1" as="geometry" />
        </mxCell>
        <mxCell id="01cRW5Nif3fKUecZSEzK-196" value="Configuracion_Seguridad" style="rounded=0;whiteSpace=wrap;html=1;" vertex="1" parent="1">
          <mxGeometry x="-549.5" y="379" width="150" height="30" as="geometry" />
        </mxCell>
        <mxCell id="01cRW5Nif3fKUecZSEzK-197" value="id" style="ellipse;whiteSpace=wrap;html=1;" vertex="1" parent="1">
          <mxGeometry x="-600" y="420" width="90" height="30" as="geometry" />
        </mxCell>
        <mxCell id="01cRW5Nif3fKUecZSEzK-198" style="rounded=0;orthogonalLoop=1;jettySize=auto;html=1;entryX=0.732;entryY=0.048;entryDx=0;entryDy=0;entryPerimeter=0;endArrow=none;endFill=0;" edge="1" parent="1" source="01cRW5Nif3fKUecZSEzK-196" target="01cRW5Nif3fKUecZSEzK-197">
          <mxGeometry relative="1" as="geometry" />
        </mxCell>
        <mxCell id="01cRW5Nif3fKUecZSEzK-199" value="NombreConfiguracion" style="ellipse;whiteSpace=wrap;html=1;rounded=0;" vertex="1" parent="1">
          <mxGeometry x="-638" y="320" width="128" height="35" as="geometry" />
        </mxCell>
        <mxCell id="01cRW5Nif3fKUecZSEzK-200" value="ValorConfiguracion" style="ellipse;whiteSpace=wrap;html=1;rounded=0;" vertex="1" parent="1">
          <mxGeometry x="-429.5" y="325" width="116" height="33" as="geometry" />
        </mxCell>
        <mxCell id="01cRW5Nif3fKUecZSEzK-202" value="Descripcion" style="ellipse;whiteSpace=wrap;html=1;rounded=0;" vertex="1" parent="1">
          <mxGeometry x="-450" y="425" width="76" height="25" as="geometry" />
        </mxCell>
        <mxCell id="01cRW5Nif3fKUecZSEzK-204" style="rounded=0;orthogonalLoop=1;jettySize=auto;html=1;entryX=0.672;entryY=0.988;entryDx=0;entryDy=0;endArrow=none;endFill=0;exitX=0.197;exitY=0.164;exitDx=0;exitDy=0;exitPerimeter=0;entryPerimeter=0;" edge="1" parent="1" source="01cRW5Nif3fKUecZSEzK-202" target="01cRW5Nif3fKUecZSEzK-196">
          <mxGeometry relative="1" as="geometry">
            <mxPoint x="-344" y="395" as="sourcePoint" />
            <mxPoint x="-390" y="391" as="targetPoint" />
          </mxGeometry>
        </mxCell>
        <mxCell id="01cRW5Nif3fKUecZSEzK-205" value="" style="rounded=0;orthogonalLoop=1;jettySize=auto;html=1;endArrow=none;endFill=0;" edge="1" parent="1" target="01cRW5Nif3fKUecZSEzK-209">
          <mxGeometry relative="1" as="geometry">
            <mxPoint x="-480" y="140" as="sourcePoint" />
          </mxGeometry>
        </mxCell>
        <mxCell id="01cRW5Nif3fKUecZSEzK-206" style="rounded=0;orthogonalLoop=1;jettySize=auto;html=1;endArrow=none;endFill=0;" edge="1" parent="1" target="01cRW5Nif3fKUecZSEzK-210">
          <mxGeometry relative="1" as="geometry">
            <mxPoint x="-459" y="140" as="sourcePoint" />
          </mxGeometry>
        </mxCell>
        <mxCell id="01cRW5Nif3fKUecZSEzK-207" value="RequiereMayusculas" style="ellipse;whiteSpace=wrap;html=1;" vertex="1" parent="1">
          <mxGeometry x="-649" y="176" width="130" height="30" as="geometry" />
        </mxCell>
        <mxCell id="01cRW5Nif3fKUecZSEzK-208" style="rounded=0;orthogonalLoop=1;jettySize=auto;html=1;entryX=0.5;entryY=0;entryDx=0;entryDy=0;endArrow=none;endFill=0;" edge="1" parent="1" target="01cRW5Nif3fKUecZSEzK-207">
          <mxGeometry relative="1" as="geometry">
            <mxPoint x="-509" y="140" as="sourcePoint" />
          </mxGeometry>
        </mxCell>
        <mxCell id="01cRW5Nif3fKUecZSEzK-209" value="RequiereNumeros" style="ellipse;whiteSpace=wrap;html=1;rounded=0;" vertex="1" parent="1">
          <mxGeometry x="-547" y="206" width="116" height="35" as="geometry" />
        </mxCell>
        <mxCell id="01cRW5Nif3fKUecZSEzK-210" value="RequiereSimbolos" style="ellipse;whiteSpace=wrap;html=1;rounded=0;" vertex="1" parent="1">
          <mxGeometry x="-440" y="184" width="106" height="35" as="geometry" />
        </mxCell>
        <mxCell id="01cRW5Nif3fKUecZSEzK-189" value="Pliticas_ContraseÃ±as" style="rounded=0;whiteSpace=wrap;html=1;" vertex="1" parent="1">
          <mxGeometry x="-545" y="119" width="132" height="25" as="geometry" />
        </mxCell>
        <mxCell id="01cRW5Nif3fKUecZSEzK-214" value="1:M" style="text;html=1;align=center;verticalAlign=middle;resizable=0;points=[];autosize=1;strokeColor=none;fillColor=none;" vertex="1" parent="1">
          <mxGeometry x="-88" y="168" width="40" height="30" as="geometry" />
        </mxCell>
        <mxCell id="01cRW5Nif3fKUecZSEzK-215" value="M:N" style="text;html=1;align=center;verticalAlign=middle;resizable=0;points=[];autosize=1;strokeColor=none;fillColor=none;" vertex="1" parent="1">
          <mxGeometry x="-94" y="48" width="50" height="30" as="geometry" />
        </mxCell>
        <mxCell id="01cRW5Nif3fKUecZSEzK-216" value="M:N" style="text;html=1;align=center;verticalAlign=middle;resizable=0;points=[];autosize=1;strokeColor=none;fillColor=none;" vertex="1" parent="1">
          <mxGeometry x="-135" y="108" width="50" height="30" as="geometry" />
        </mxCell>
        <mxCell id="01cRW5Nif3fKUecZSEzK-217" value="1:1" style="text;html=1;align=center;verticalAlign=middle;resizable=0;points=[];autosize=1;strokeColor=none;fillColor=none;" vertex="1" parent="1">
          <mxGeometry x="-84" y="234" width="40" height="30" as="geometry" />
        </mxCell>
        <mxCell id="01cRW5Nif3fKUecZSEzK-218" value="1:M" style="text;html=1;align=center;verticalAlign=middle;resizable=0;points=[];autosize=1;strokeColor=none;fillColor=none;" vertex="1" parent="1">
          <mxGeometry x="-90" y="348" width="40" height="30" as="geometry" />
        </mxCell>
        <mxCell id="01cRW5Nif3fKUecZSEzK-219" value="1:M" style="text;html=1;align=center;verticalAlign=middle;resizable=0;points=[];autosize=1;strokeColor=none;fillColor=none;" vertex="1" parent="1">
          <mxGeometry x="-128" y="299" width="40" height="30" as="geometry" />
        </mxCell>
        <mxCell id="01cRW5Nif3fKUecZSEzK-220" value="1:M" style="text;html=1;align=center;verticalAlign=middle;resizable=0;points=[];autosize=1;strokeColor=none;fillColor=none;" vertex="1" parent="1">
          <mxGeometry x="4" y="388" width="40" height="30" as="geometry" />
        </mxCell>
        <mxCell id="01cRW5Nif3fKUecZSEzK-221" value="M:N" style="text;html=1;align=center;verticalAlign=middle;resizable=0;points=[];autosize=1;strokeColor=none;fillColor=none;" vertex="1" parent="1">
          <mxGeometry x="543" y="150" width="50" height="30" as="geometry" />
        </mxCell>
        <mxCell id="01cRW5Nif3fKUecZSEzK-222" value="1:M" style="text;html=1;align=center;verticalAlign=middle;resizable=0;points=[];autosize=1;strokeColor=none;fillColor=none;" vertex="1" parent="1">
          <mxGeometry x="810" y="188" width="40" height="30" as="geometry" />
        </mxCell>
        <mxCell id="01cRW5Nif3fKUecZSEzK-223" value="1:M" style="text;html=1;align=center;verticalAlign=middle;resizable=0;points=[];autosize=1;strokeColor=none;fillColor=none;" vertex="1" parent="1">
          <mxGeometry x="990" y="188" width="40" height="30" as="geometry" />
        </mxCell>
        <mxCell id="01cRW5Nif3fKUecZSEzK-224" value="1:M" style="text;html=1;align=center;verticalAlign=middle;resizable=0;points=[];autosize=1;strokeColor=none;fillColor=none;" vertex="1" parent="1">
          <mxGeometry x="901" y="156" width="40" height="30" as="geometry" />
        </mxCell>
        <mxCell id="01cRW5Nif3fKUecZSEzK-225" value="1:1" style="text;html=1;align=center;verticalAlign=middle;resizable=0;points=[];autosize=1;strokeColor=none;fillColor=none;" vertex="1" parent="1">
          <mxGeometry x="795" y="294" width="40" height="30" as="geometry" />
        </mxCell>
        <mxCell id="01cRW5Nif3fKUecZSEzK-226" value="1:1" style="text;html=1;align=center;verticalAlign=middle;resizable=0;points=[];autosize=1;strokeColor=none;fillColor=none;" vertex="1" parent="1">
          <mxGeometry x="752" y="223" width="40" height="30" as="geometry" />
        </mxCell>
        <mxCell id="01cRW5Nif3fKUecZSEzK-227" value="1:1" style="text;html=1;align=center;verticalAlign=middle;resizable=0;points=[];autosize=1;strokeColor=none;fillColor=none;" vertex="1" parent="1">
          <mxGeometry x="752" y="354" width="40" height="30" as="geometry" />
        </mxCell>
      </root>
    </mxGraphModel>
  </diagram>
</mxfile>
